<svg width="375" height="250" viewBox="0 0 375 250" fill="none" xmlns="http://www.w3.org/2000/svg">
<path d="M64.8135 81.2292H198.082C198.859 81.2292 199.655 81.0846 200.333 80.6868C201.617 79.9274 202.394 78.5532 202.322 76.8083C202.521 65.6341 193.453 55.6713 182.008 60.9329C180.308 61.6381 179.621 61.0595 178.726 59.8209C174.567 52.281 165.825 48.8817 158.312 53.8089C155.717 55.2011 154.56 52.95 153.747 50.3192C152.463 46.1514 150.465 42.2097 147.545 38.9731C136.605 26.8587 119.121 26.8406 105.307 37.0023C98.6708 42.3272 93.9335 49.0987 90.489 56.8194C89.9013 58.1303 89.3951 59.0796 87.5779 58.9259C76.0872 57.4432 64.6146 59.2694 59.8863 69.9193C58.7834 72.6587 59.814 77.9022 61.0797 79.5115C61.9657 80.6416 63.3851 81.2292 64.8225 81.2292H64.8135Z" fill="#E6E7E9"/>
<path d="M328.593 206.616C330.624 206.616 332.206 204.838 331.978 202.825C330.954 193.922 327.476 186.002 320.63 179.639C306.118 164.339 278.473 169.865 272.701 190.681C272.363 194.244 263.757 189.091 258.011 191.122C251.436 192.306 246.097 196.14 243.947 202.071C243.144 204.28 244.802 206.616 247.155 206.616H328.602H328.593Z" fill="#E6E7E9"/>
<path fill-rule="evenodd" clip-rule="evenodd" d="M179.052 87.3003C179.052 86.6099 179.611 86.0503 180.302 86.0503H234.224C234.914 86.0503 235.474 86.6099 235.474 87.3003C235.474 87.9906 234.914 88.5503 234.224 88.5503H180.302C179.611 88.5503 179.052 87.9906 179.052 87.3003Z" fill="#F9F9F9"/>
<path fill-rule="evenodd" clip-rule="evenodd" d="M167.055 75.1587C167.055 74.4683 167.615 73.9087 168.305 73.9087H222.227C222.917 73.9087 223.477 74.4683 223.477 75.1587C223.477 75.849 222.917 76.4087 222.227 76.4087H168.305C167.615 76.4087 167.055 75.849 167.055 75.1587Z" fill="#F9F9F9"/>
<path fill-rule="evenodd" clip-rule="evenodd" d="M228.993 200.302C228.993 200.716 229.328 201.052 229.743 201.052L274.066 201.052C274.48 201.052 274.816 200.716 274.816 200.302C274.816 199.888 274.48 199.552 274.066 199.552L229.743 199.552C229.328 199.552 228.993 199.888 228.993 200.302Z" fill="#F9F9F9"/>
<path fill-rule="evenodd" clip-rule="evenodd" d="M219.132 211.082C219.132 211.496 219.468 211.832 219.882 211.832H264.205C264.62 211.832 264.955 211.496 264.955 211.082C264.955 210.668 264.62 210.332 264.205 210.332H219.882C219.468 210.332 219.132 210.668 219.132 211.082Z" fill="#F9F9F9"/>
<path fill-rule="evenodd" clip-rule="evenodd" d="M100.572 177.426C100.316 179.644 99.6182 181.744 98.5777 183.247C98.0181 184.055 97.342 184.832 96.5804 185.575C101.154 185.513 106.654 184.144 112.981 180.773C113.346 180.578 113.8 180.717 113.995 181.082C114.19 181.448 114.051 181.902 113.686 182.097C106.429 185.963 100.104 187.317 94.9192 187.041C93.198 188.426 91.2206 189.667 89.2318 190.741C85.5481 192.731 81.7295 194.2 79.1871 194.979C78.7911 195.1 78.3716 194.878 78.2503 194.481C78.1289 194.085 78.3516 193.666 78.7476 193.545C81.2069 192.791 84.9324 191.359 88.5189 189.421C89.9909 188.626 91.4235 187.754 92.7296 186.819C88.2942 186.149 84.8396 184.22 82.5264 181.709C79.9432 178.904 78.8077 175.372 79.4455 172.176C80.0901 168.946 82.5171 166.206 86.7455 164.984L86.7606 164.979L86.7758 164.976C90.4159 164.086 93.2949 164.369 95.4862 165.486C97.6797 166.603 99.0828 168.504 99.8674 170.651C100.649 172.791 100.829 175.202 100.572 177.426ZM94.425 185.504C89.5525 185.111 85.9055 183.163 83.6297 180.693C81.311 178.175 80.3887 175.114 80.9165 172.47C81.4368 169.863 83.3941 167.518 87.1471 166.429C90.5347 165.604 93.0209 165.913 94.8053 166.822C96.5902 167.732 97.7739 169.293 98.4585 171.166C99.1457 173.047 99.3176 175.216 99.0823 177.254C98.8464 179.298 98.209 181.144 97.3444 182.393C96.5933 183.478 95.5915 184.52 94.425 185.504Z" fill="#E0E1E3"/>
<path fill-rule="evenodd" clip-rule="evenodd" d="M84.0185 187.669C84.2425 188.018 84.1416 188.482 83.7932 188.706C82.9247 189.264 81.2163 190.014 79.5024 190.707C77.7638 191.41 75.9412 192.084 74.7916 192.492C74.4012 192.63 73.9726 192.425 73.8343 192.035C73.696 191.645 73.9004 191.216 74.2909 191.078C75.4243 190.676 77.2259 190.009 78.9402 189.316C80.6793 188.613 82.2526 187.913 82.9821 187.444C83.3305 187.22 83.7945 187.321 84.0185 187.669Z" fill="#E0E1E3"/>
<path fill-rule="evenodd" clip-rule="evenodd" d="M119.621 183.637C119.845 183.985 119.744 184.449 119.395 184.673C118.527 185.231 116.818 185.981 115.105 186.674C113.366 187.377 111.543 188.052 110.394 188.459C110.003 188.597 109.575 188.393 109.436 188.002C109.298 187.612 109.503 187.183 109.893 187.045C111.026 186.644 112.828 185.977 114.542 185.284C116.281 184.581 117.855 183.88 118.584 183.411C118.933 183.187 119.397 183.288 119.621 183.637Z" fill="#E0E1E3"/>
<path d="M238.197 118.134L163.678 181.399C162.634 182.285 161.028 181.883 160.524 180.61L151.163 156.951C150.995 156.524 150.684 156.168 150.284 155.944L137.176 148.57C135.628 147.699 135.899 145.392 137.607 144.904L237.275 116.41C238.31 116.114 239.018 117.437 238.197 118.134Z" fill="#519BEC"/>
<path d="M234.606 117.398L151.053 156.758L161.034 181.551L234.606 117.398Z" fill="#207EE7"/>
<path d="M160.955 181.908L156.953 159.079L174.349 170.927C174.896 171.299 174.937 172.091 174.431 172.518L162.585 182.5C161.995 182.997 161.089 182.668 160.955 181.908Z" fill="#005BBF"/>
<path d="M178.771 178.864L156.626 158.764L237.729 115.719C238.725 115.19 239.698 116.46 238.929 117.285L181.577 178.748C180.831 179.547 179.581 179.599 178.771 178.864Z" fill="#91BFF2"/>
</svg>
